<svg width="1579" height="993" viewBox="0 0 1579 993" fill="none" xmlns="http://www.w3.org/2000/svg">
<g clip-path="url(#clip0_4_171)">
<rect width="1579" height="993" fill="#050C12"/>
<g clip-path="url(#clip1_4_171)">
<path d="M1672.17 0H-93.1665V993H1672.17V0Z" fill="#050C12"/>
<g filter="url(#filter0_fn_4_171)">
<ellipse cx="790" cy="1429.5" rx="916" ry="792.5" fill="#0D264F"/>
</g>
<path d="M789.5 1728.56C1398.85 1728.56 1892.83 1399.24 1892.83 993C1892.83 586.764 1398.85 257.444 789.5 257.444C180.146 257.444 -313.833 586.764 -313.833 993C-313.833 1399.24 180.146 1728.56 789.5 1728.56Z" fill="url(#paint0_radial_4_171)"/>
<path d="M789.5 1471.11C1297.3 1471.11 1708.94 1182.96 1708.94 827.5C1708.94 472.043 1297.3 183.889 789.5 183.889C281.705 183.889 -129.944 472.043 -129.944 827.5C-129.944 1182.96 281.705 1471.11 789.5 1471.11Z" fill="url(#paint1_radial_4_171)"/>
<path d="M1672.17 0H-93.1665V993H1672.17V0Z" fill="url(#paint2_radial_4_171)" fill-opacity="0.24"/>
<path d="M137.067 168.897C137.067 168.897 137.451 171.525 138.563 172.638C139.676 173.75 142.304 174.134 142.304 174.134C142.304 174.134 139.676 174.518 138.563 175.63C137.451 176.743 137.067 179.371 137.067 179.371C137.067 179.371 136.704 176.727 135.588 175.612C134.473 174.497 131.83 174.134 131.83 174.134C131.83 174.134 134.458 173.75 135.571 172.638C136.683 171.525 137.067 168.897 137.067 168.897Z" fill="white"/>
<g filter="url(#filter1_fg_4_171)">
<path d="M137.067 164C137.067 164 137.805 169.052 139.943 171.191C142.082 173.329 147.134 174.067 147.134 174.067C147.134 174.067 142.082 174.804 139.943 176.943C137.805 179.081 137.067 184.133 137.067 184.133C137.067 184.133 136.369 179.053 134.225 176.909C132.081 174.765 127 174.067 127 174.067C127 174.067 132.052 173.329 134.191 171.191C136.329 169.052 137.067 164 137.067 164Z" fill="white"/>
</g>
<path d="M1501.07 852.897C1501.07 852.897 1501.45 855.525 1502.56 856.638C1503.68 857.75 1506.3 858.134 1506.3 858.134C1506.3 858.134 1503.68 858.518 1502.56 859.63C1501.45 860.743 1501.07 863.371 1501.07 863.371C1501.07 863.371 1500.7 860.727 1499.59 859.612C1498.47 858.497 1495.83 858.134 1495.83 858.134C1495.83 858.134 1498.46 857.75 1499.57 856.638C1500.68 855.525 1501.07 852.897 1501.07 852.897Z" fill="white"/>
<g filter="url(#filter2_fg_4_171)">
<path d="M1501.07 848C1501.07 848 1501.81 853.052 1503.94 855.191C1506.08 857.329 1511.13 858.067 1511.13 858.067C1511.13 858.067 1506.08 858.804 1503.94 860.943C1501.81 863.081 1501.07 868.133 1501.07 868.133C1501.07 868.133 1500.37 863.053 1498.23 860.909C1496.08 858.765 1491 858.067 1491 858.067C1491 858.067 1496.05 857.329 1498.19 855.191C1500.33 853.052 1501.07 848 1501.07 848Z" fill="white"/>
</g>
<path d="M1005.07 697.897C1005.07 697.897 1005.45 700.525 1006.56 701.638C1007.68 702.75 1010.3 703.134 1010.3 703.134C1010.3 703.134 1007.68 703.518 1006.56 704.63C1005.45 705.743 1005.07 708.371 1005.07 708.371C1005.07 708.371 1004.7 705.727 1003.59 704.612C1002.47 703.497 999.831 703.134 999.831 703.134C999.831 703.134 1002.46 702.75 1003.57 701.638C1004.68 700.525 1005.07 697.897 1005.07 697.897Z" fill="white"/>
<g filter="url(#filter3_fg_4_171)">
<path d="M1005.07 693C1005.07 693 1005.81 698.052 1007.94 700.191C1010.08 702.329 1015.13 703.067 1015.13 703.067C1015.13 703.067 1010.08 703.804 1007.94 705.943C1005.81 708.081 1005.07 713.133 1005.07 713.133C1005.07 713.133 1004.37 708.053 1002.23 705.909C1000.08 703.765 995.001 703.067 995.001 703.067C995.001 703.067 1000.05 702.329 1002.19 700.191C1004.33 698.052 1005.07 693 1005.07 693Z" fill="white"/>
</g>
<path d="M738.067 55.897C738.067 55.897 738.451 58.5251 739.563 59.6376C740.676 60.7501 743.304 61.1338 743.304 61.1338C743.304 61.1338 740.676 61.5175 739.563 62.63C738.451 63.7425 738.067 66.3706 738.067 66.3706C738.067 66.3706 737.704 63.7275 736.588 62.6122C735.473 61.497 732.83 61.1338 732.83 61.1338C732.83 61.1338 735.458 60.7501 736.571 59.6376C737.683 58.5251 738.067 55.897 738.067 55.897Z" fill="white"/>
<g filter="url(#filter4_fg_4_171)">
<path d="M738.067 51C738.067 51 738.805 56.0519 740.943 58.1905C743.082 60.3291 748.134 61.0667 748.134 61.0667C748.134 61.0667 743.082 61.8044 740.943 63.9429C738.805 66.0815 738.067 71.1334 738.067 71.1334C738.067 71.1334 737.369 66.0525 735.225 63.9087C733.081 61.7648 728 61.0667 728 61.0667C728 61.0667 733.052 60.3291 735.191 58.1905C737.329 56.0519 738.067 51 738.067 51Z" fill="white"/>
</g>
</g>
<path d="M1226.07 326.897C1226.07 326.897 1226.45 329.525 1227.56 330.638C1228.68 331.75 1231.3 332.134 1231.3 332.134C1231.3 332.134 1228.68 332.518 1227.56 333.63C1226.45 334.743 1226.07 337.371 1226.07 337.371C1226.07 337.371 1225.7 334.727 1224.59 333.612C1223.47 332.497 1220.83 332.134 1220.83 332.134C1220.83 332.134 1223.46 331.75 1224.57 330.638C1225.68 329.525 1226.07 326.897 1226.07 326.897Z" fill="white"/>
<g filter="url(#filter5_fg_4_171)">
<path d="M1226.07 322C1226.07 322 1226.81 327.052 1228.94 329.191C1231.08 331.329 1236.13 332.067 1236.13 332.067C1236.13 332.067 1231.08 332.804 1228.94 334.943C1226.81 337.081 1226.07 342.133 1226.07 342.133C1226.07 342.133 1225.37 337.053 1223.23 334.909C1221.08 332.765 1216 332.067 1216 332.067C1216 332.067 1221.05 331.329 1223.19 329.191C1225.33 327.052 1226.07 322 1226.07 322Z" fill="white"/>
</g>
<path d="M1386.07 188.897C1386.07 188.897 1386.45 191.525 1387.56 192.638C1388.68 193.75 1391.3 194.134 1391.3 194.134C1391.3 194.134 1388.68 194.518 1387.56 195.63C1386.45 196.743 1386.07 199.371 1386.07 199.371C1386.07 199.371 1385.7 196.727 1384.59 195.612C1383.47 194.497 1380.83 194.134 1380.83 194.134C1380.83 194.134 1383.46 193.75 1384.57 192.638C1385.68 191.525 1386.07 188.897 1386.07 188.897Z" fill="white"/>
<g filter="url(#filter6_fg_4_171)">
<path d="M1386.07 184C1386.07 184 1386.81 189.052 1388.94 191.191C1391.08 193.329 1396.13 194.067 1396.13 194.067C1396.13 194.067 1391.08 194.804 1388.94 196.943C1386.81 199.081 1386.07 204.133 1386.07 204.133C1386.07 204.133 1385.37 199.053 1383.23 196.909C1381.08 194.765 1376 194.067 1376 194.067C1376 194.067 1381.05 193.329 1383.19 191.191C1385.33 189.052 1386.07 184 1386.07 184Z" fill="white"/>
</g>
<path d="M193.067 832.897C193.067 832.897 193.451 835.525 194.563 836.638C195.676 837.75 198.304 838.134 198.304 838.134C198.304 838.134 195.676 838.518 194.563 839.63C193.451 840.743 193.067 843.371 193.067 843.371C193.067 843.371 192.704 840.727 191.588 839.612C190.473 838.497 187.83 838.134 187.83 838.134C187.83 838.134 190.458 837.75 191.571 836.638C192.683 835.525 193.067 832.897 193.067 832.897Z" fill="white"/>
<g filter="url(#filter7_fg_4_171)">
<path d="M193.067 828C193.067 828 193.805 833.052 195.943 835.191C198.082 837.329 203.134 838.067 203.134 838.067C203.134 838.067 198.082 838.804 195.943 840.943C193.805 843.081 193.067 848.133 193.067 848.133C193.067 848.133 192.369 843.053 190.225 840.909C188.081 838.765 183 838.067 183 838.067C183 838.067 188.052 837.329 190.191 835.191C192.329 833.052 193.067 828 193.067 828Z" fill="white"/>
</g>
<path d="M278.067 763.897C278.067 763.897 278.451 766.525 279.563 767.638C280.676 768.75 283.304 769.134 283.304 769.134C283.304 769.134 280.676 769.518 279.563 770.63C278.451 771.743 278.067 774.371 278.067 774.371C278.067 774.371 277.704 771.727 276.588 770.612C275.473 769.497 272.83 769.134 272.83 769.134C272.83 769.134 275.458 768.75 276.571 767.638C277.683 766.525 278.067 763.897 278.067 763.897Z" fill="white"/>
<g filter="url(#filter8_fg_4_171)">
<path d="M278.067 759C278.067 759 278.805 764.052 280.943 766.191C283.082 768.329 288.134 769.067 288.134 769.067C288.134 769.067 283.082 769.804 280.943 771.943C278.805 774.081 278.067 779.133 278.067 779.133C278.067 779.133 277.369 774.053 275.225 771.909C273.081 769.765 268 769.067 268 769.067C268 769.067 273.052 768.329 275.191 766.191C277.329 764.052 278.067 759 278.067 759Z" fill="white"/>
</g>
</g>
<defs>
<filter id="filter0_fn_4_171" x="-677" y="86" width="2934" height="2687" filterUnits="userSpaceOnUse" color-interpolation-filters="sRGB">
<feFlood flood-opacity="0" result="BackgroundImageFix"/>
<feBlend mode="normal" in="SourceGraphic" in2="BackgroundImageFix" result="shape"/>
<feGaussianBlur stdDeviation="275.5" result="effect1_foregroundBlur_4_171"/>
<feTurbulence type="fractalNoise" baseFrequency="0.76923078298568726 0.76923078298568726" stitchTiles="stitch" numOctaves="3" result="noise" seed="9215" />
<feColorMatrix in="noise" type="luminanceToAlpha" result="alphaNoise" />
<feComponentTransfer in="alphaNoise" result="coloredNoise1">
<feFuncA type="discrete" tableValues="1 1 1 1 1 1 1 1 1 1 1 1 1 1 1 1 1 1 1 1 1 1 1 1 1 1 1 1 1 1 1 1 1 1 1 1 1 1 1 1 1 1 1 1 1 1 1 1 1 1 1 0 0 0 0 0 0 0 0 0 0 0 0 0 0 0 0 0 0 0 0 0 0 0 0 0 0 0 0 0 0 0 0 0 0 0 0 0 0 0 0 0 0 0 0 0 0 0 0 0 "/>
</feComponentTransfer>
<feComposite operator="in" in2="effect1_foregroundBlur_4_171" in="coloredNoise1" result="noise1Clipped" />
<feFlood flood-color="rgba(0, 0, 0, 0.25)" result="color1Flood" />
<feComposite operator="in" in2="noise1Clipped" in="color1Flood" result="color1" />
<feMerge result="effect2_noise_4_171">
<feMergeNode in="effect1_foregroundBlur_4_171" />
<feMergeNode in="color1" />
</feMerge>
</filter>
<filter id="filter1_fg_4_171" x="123" y="160" width="28.1338" height="28.1333" filterUnits="userSpaceOnUse" color-interpolation-filters="sRGB">
<feFlood flood-opacity="0" result="BackgroundImageFix"/>
<feBlend mode="normal" in="SourceGraphic" in2="BackgroundImageFix" result="shape"/>
<feGaussianBlur stdDeviation="1.9" result="effect1_foregroundBlur_4_171"/>
<feTurbulence type="fractalNoise" baseFrequency="0.99900001287460327 0.99900001287460327" numOctaves="3" seed="3353" />
<feDisplacementMap in="effect1_foregroundBlur_4_171" scale="8" xChannelSelector="R" yChannelSelector="G" result="displacedImage" width="100%" height="100%" />
<feMerge result="effect2_texture_4_171">
<feMergeNode in="displacedImage"/>
</feMerge>
</filter>
<filter id="filter2_fg_4_171" x="1487" y="844" width="28.1328" height="28.1333" filterUnits="userSpaceOnUse" color-interpolation-filters="sRGB">
<feFlood flood-opacity="0" result="BackgroundImageFix"/>
<feBlend mode="normal" in="SourceGraphic" in2="BackgroundImageFix" result="shape"/>
<feGaussianBlur stdDeviation="1.9" result="effect1_foregroundBlur_4_171"/>
<feTurbulence type="fractalNoise" baseFrequency="0.99900001287460327 0.99900001287460327" numOctaves="3" seed="3353" />
<feDisplacementMap in="effect1_foregroundBlur_4_171" scale="8" xChannelSelector="R" yChannelSelector="G" result="displacedImage" width="100%" height="100%" />
<feMerge result="effect2_texture_4_171">
<feMergeNode in="displacedImage"/>
</feMerge>
</filter>
<filter id="filter3_fg_4_171" x="991.001" y="689" width="28.1328" height="28.1333" filterUnits="userSpaceOnUse" color-interpolation-filters="sRGB">
<feFlood flood-opacity="0" result="BackgroundImageFix"/>
<feBlend mode="normal" in="SourceGraphic" in2="BackgroundImageFix" result="shape"/>
<feGaussianBlur stdDeviation="1.9" result="effect1_foregroundBlur_4_171"/>
<feTurbulence type="fractalNoise" baseFrequency="0.99900001287460327 0.99900001287460327" numOctaves="3" seed="3353" />
<feDisplacementMap in="effect1_foregroundBlur_4_171" scale="8" xChannelSelector="R" yChannelSelector="G" result="displacedImage" width="100%" height="100%" />
<feMerge result="effect2_texture_4_171">
<feMergeNode in="displacedImage"/>
</feMerge>
</filter>
<filter id="filter4_fg_4_171" x="724" y="47" width="28.1338" height="28.1333" filterUnits="userSpaceOnUse" color-interpolation-filters="sRGB">
<feFlood flood-opacity="0" result="BackgroundImageFix"/>
<feBlend mode="normal" in="SourceGraphic" in2="BackgroundImageFix" result="shape"/>
<feGaussianBlur stdDeviation="1.9" result="effect1_foregroundBlur_4_171"/>
<feTurbulence type="fractalNoise" baseFrequency="0.99900001287460327 0.99900001287460327" numOctaves="3" seed="3353" />
<feDisplacementMap in="effect1_foregroundBlur_4_171" scale="8" xChannelSelector="R" yChannelSelector="G" result="displacedImage" width="100%" height="100%" />
<feMerge result="effect2_texture_4_171">
<feMergeNode in="displacedImage"/>
</feMerge>
</filter>
<filter id="filter5_fg_4_171" x="1212" y="318" width="28.1328" height="28.1333" filterUnits="userSpaceOnUse" color-interpolation-filters="sRGB">
<feFlood flood-opacity="0" result="BackgroundImageFix"/>
<feBlend mode="normal" in="SourceGraphic" in2="BackgroundImageFix" result="shape"/>
<feGaussianBlur stdDeviation="1.9" result="effect1_foregroundBlur_4_171"/>
<feTurbulence type="fractalNoise" baseFrequency="0.99900001287460327 0.99900001287460327" numOctaves="3" seed="3353" />
<feDisplacementMap in="effect1_foregroundBlur_4_171" scale="8" xChannelSelector="R" yChannelSelector="G" result="displacedImage" width="100%" height="100%" />
<feMerge result="effect2_texture_4_171">
<feMergeNode in="displacedImage"/>
</feMerge>
</filter>
<filter id="filter6_fg_4_171" x="1372" y="180" width="28.1328" height="28.1333" filterUnits="userSpaceOnUse" color-interpolation-filters="sRGB">
<feFlood flood-opacity="0" result="BackgroundImageFix"/>
<feBlend mode="normal" in="SourceGraphic" in2="BackgroundImageFix" result="shape"/>
<feGaussianBlur stdDeviation="1.9" result="effect1_foregroundBlur_4_171"/>
<feTurbulence type="fractalNoise" baseFrequency="0.99900001287460327 0.99900001287460327" numOctaves="3" seed="3353" />
<feDisplacementMap in="effect1_foregroundBlur_4_171" scale="8" xChannelSelector="R" yChannelSelector="G" result="displacedImage" width="100%" height="100%" />
<feMerge result="effect2_texture_4_171">
<feMergeNode in="displacedImage"/>
</feMerge>
</filter>
<filter id="filter7_fg_4_171" x="179" y="824" width="28.1338" height="28.1333" filterUnits="userSpaceOnUse" color-interpolation-filters="sRGB">
<feFlood flood-opacity="0" result="BackgroundImageFix"/>
<feBlend mode="normal" in="SourceGraphic" in2="BackgroundImageFix" result="shape"/>
<feGaussianBlur stdDeviation="1.9" result="effect1_foregroundBlur_4_171"/>
<feTurbulence type="fractalNoise" baseFrequency="0.99900001287460327 0.99900001287460327" numOctaves="3" seed="3353" />
<feDisplacementMap in="effect1_foregroundBlur_4_171" scale="8" xChannelSelector="R" yChannelSelector="G" result="displacedImage" width="100%" height="100%" />
<feMerge result="effect2_texture_4_171">
<feMergeNode in="displacedImage"/>
</feMerge>
</filter>
<filter id="filter8_fg_4_171" x="264" y="755" width="28.1338" height="28.1333" filterUnits="userSpaceOnUse" color-interpolation-filters="sRGB">
<feFlood flood-opacity="0" result="BackgroundImageFix"/>
<feBlend mode="normal" in="SourceGraphic" in2="BackgroundImageFix" result="shape"/>
<feGaussianBlur stdDeviation="1.9" result="effect1_foregroundBlur_4_171"/>
<feTurbulence type="fractalNoise" baseFrequency="0.99900001287460327 0.99900001287460327" numOctaves="3" seed="3353" />
<feDisplacementMap in="effect1_foregroundBlur_4_171" scale="8" xChannelSelector="R" yChannelSelector="G" result="displacedImage" width="100%" height="100%" />
<feMerge result="effect2_texture_4_171">
<feMergeNode in="displacedImage"/>
</feMerge>
</filter>
<radialGradient id="paint0_radial_4_171" cx="0" cy="0" r="1" gradientUnits="userSpaceOnUse" gradientTransform="translate(110020 147369) scale(1103.33 735.556)">
<stop stop-color="#3562B0" stop-opacity="0.3"/>
<stop offset="1" stop-color="#050C12" stop-opacity="0"/>
</radialGradient>
<radialGradient id="paint1_radial_4_171" cx="0" cy="0" r="1" gradientUnits="userSpaceOnUse" gradientTransform="translate(91814.5 103162) scale(919.444 643.611)">
<stop stop-color="#0D264F" stop-opacity="0.5"/>
<stop offset="1" stop-color="#050C12" stop-opacity="0"/>
</radialGradient>
<radialGradient id="paint2_radial_4_171" cx="0" cy="0" r="1" gradientUnits="userSpaceOnUse" gradientTransform="translate(1.69463e+06 536220) scale(882.667 496.5)">
<stop offset="0.6" stop-opacity="0"/>
<stop offset="1" stop-color="#050C12" stop-opacity="0.6"/>
</radialGradient>
<clipPath id="clip0_4_171">
<rect width="1579" height="993" fill="white"/>
</clipPath>
<clipPath id="clip1_4_171">
<rect width="1579" height="993" fill="white"/>
</clipPath>
</defs>
</svg>
