<svg width="187" height="353" viewBox="0 0 187 353" fill="none" xmlns="http://www.w3.org/2000/svg">
<g opacity="0.6">
<path d="M185.268 47.5142L93.3238 1.54199L1.37939 47.5142V304.959L93.3238 350.931L185.268 304.959V47.5142Z" stroke="white" stroke-width="2.75833"/>
<path d="M93.3236 249.792C133.947 249.792 166.879 216.86 166.879 176.236C166.879 135.613 133.947 102.681 93.3236 102.681C52.7 102.681 19.7681 135.613 19.7681 176.236C19.7681 216.86 52.7 249.792 93.3236 249.792Z" fill="#224377" fill-opacity="0.2" stroke="white" stroke-width="1.83889"/>
<path d="M93.3237 169.341C97.1322 169.341 100.219 172.428 100.219 176.236C100.219 180.045 97.1322 183.132 93.3237 183.132C89.5153 183.132 86.4282 180.045 86.4282 176.236C86.4283 172.428 89.5153 169.341 93.3237 169.341Z" fill="white" stroke="white" stroke-width="0.919444"/>
<mask id="path-4-inside-1_2_20" fill="white">
<path d="M79.5085 83.2257V82.0764H87.5327V83.2257H84.1684V92.7754H82.8728V83.2257H79.5085ZM88.7212 92.7754H87.363L91.2915 82.0764H92.6289L96.5574 92.7754H95.1991L92.002 83.769H91.9184L88.7212 92.7754ZM89.2227 88.5961H94.6976V89.7454H89.2227V88.5961ZM98.2239 92.7754V82.0764H101.839C102.678 82.0764 103.364 82.2279 103.897 82.5309C104.434 82.8304 104.831 83.2362 105.088 83.7481C105.346 84.2601 105.475 84.8313 105.475 85.4616C105.475 86.092 105.346 86.6649 105.088 87.1804C104.834 87.6958 104.441 88.1068 103.908 88.4133C103.375 88.7163 102.692 88.8678 101.86 88.8678H99.2687V87.7184H101.818C102.393 87.7184 102.854 87.6192 103.202 87.4207C103.551 87.2222 103.803 86.954 103.96 86.6162C104.12 86.2748 104.2 85.89 104.2 85.4616C104.2 85.0333 104.12 84.6501 103.96 84.3123C103.803 83.9745 103.549 83.7098 103.197 83.5183C102.846 83.3232 102.379 83.2257 101.797 83.2257H99.5195V92.7754H98.2239Z"/>
</mask>
<path d="M79.5085 83.2257V82.0764H87.5327V83.2257H84.1684V92.7754H82.8728V83.2257H79.5085ZM88.7212 92.7754H87.363L91.2915 82.0764H92.6289L96.5574 92.7754H95.1991L92.002 83.769H91.9184L88.7212 92.7754ZM89.2227 88.5961H94.6976V89.7454H89.2227V88.5961ZM98.2239 92.7754V82.0764H101.839C102.678 82.0764 103.364 82.2279 103.897 82.5309C104.434 82.8304 104.831 83.2362 105.088 83.7481C105.346 84.2601 105.475 84.8313 105.475 85.4616C105.475 86.092 105.346 86.6649 105.088 87.1804C104.834 87.6958 104.441 88.1068 103.908 88.4133C103.375 88.7163 102.692 88.8678 101.86 88.8678H99.2687V87.7184H101.818C102.393 87.7184 102.854 87.6192 103.202 87.4207C103.551 87.2222 103.803 86.954 103.96 86.6162C104.12 86.2748 104.2 85.89 104.2 85.4616C104.2 85.0333 104.12 84.6501 103.96 84.3123C103.803 83.9745 103.549 83.7098 103.197 83.5183C102.846 83.3232 102.379 83.2257 101.797 83.2257H99.5195V92.7754H98.2239Z" fill="white"/>
<path d="M79.5085 83.2257H78.5891V84.1452H79.5085V83.2257ZM79.5085 82.0764V81.157H78.5891V82.0764H79.5085ZM87.5327 82.0764H88.4522V81.157H87.5327V82.0764ZM87.5327 83.2257V84.1452H88.4522V83.2257H87.5327ZM84.1684 83.2257V82.3063H83.249V83.2257H84.1684ZM84.1684 92.7754V93.6948H85.0879V92.7754H84.1684ZM82.8728 92.7754H81.9534V93.6948H82.8728V92.7754ZM82.8728 83.2257H83.7923V82.3063H82.8728V83.2257ZM79.5085 83.2257H80.4279V82.0764H79.5085H78.5891V83.2257H79.5085ZM79.5085 82.0764V82.9958H87.5327V82.0764V81.157H79.5085V82.0764ZM87.5327 82.0764H86.6133V83.2257H87.5327H88.4522V82.0764H87.5327ZM87.5327 83.2257V82.3063H84.1684V83.2257V84.1452H87.5327V83.2257ZM84.1684 83.2257H83.249V92.7754H84.1684H85.0879V83.2257H84.1684ZM84.1684 92.7754V91.8559H82.8728V92.7754V93.6948H84.1684V92.7754ZM82.8728 92.7754H83.7923V83.2257H82.8728H81.9534V92.7754H82.8728ZM82.8728 83.2257V82.3063H79.5085V83.2257V84.1452H82.8728V83.2257ZM88.7212 92.7754V93.6948H89.3705L89.5877 93.083L88.7212 92.7754ZM87.363 92.7754L86.4999 92.4585L86.0459 93.6948H87.363V92.7754ZM91.2915 82.0764V81.157H90.6496L90.4284 81.7595L91.2915 82.0764ZM92.6289 82.0764L93.492 81.7595L93.2707 81.157H92.6289V82.0764ZM96.5574 92.7754V93.6948H97.8745L97.4205 92.4585L96.5574 92.7754ZM95.1991 92.7754L94.3327 93.083L94.5499 93.6948H95.1991V92.7754ZM92.002 83.769L92.8684 83.4614L92.6512 82.8496H92.002V83.769ZM91.9184 83.769V82.8496H91.2691L91.0519 83.4614L91.9184 83.769ZM89.2227 88.5961V87.6767H88.3033V88.5961H89.2227ZM94.6976 88.5961H95.6171V87.6767H94.6976V88.5961ZM94.6976 89.7454V90.6648H95.6171V89.7454H94.6976ZM89.2227 89.7454H88.3033V90.6648H89.2227V89.7454ZM88.7212 92.7754V91.8559H87.363V92.7754V93.6948H88.7212V92.7754ZM87.363 92.7754L88.2261 93.0923L92.1546 82.3933L91.2915 82.0764L90.4284 81.7595L86.4999 92.4585L87.363 92.7754ZM91.2915 82.0764V82.9958H92.6289V82.0764V81.157H91.2915V82.0764ZM92.6289 82.0764L91.7658 82.3933L95.6943 93.0923L96.5574 92.7754L97.4205 92.4585L93.492 81.7595L92.6289 82.0764ZM96.5574 92.7754V91.8559H95.1991V92.7754V93.6948H96.5574V92.7754ZM95.1991 92.7754L96.0656 92.4678L92.8684 83.4614L92.002 83.769L91.1355 84.0766L94.3327 93.083L95.1991 92.7754ZM92.002 83.769V82.8496H91.9184V83.769V84.6885H92.002V83.769ZM91.9184 83.769L91.0519 83.4614L87.8548 92.4678L88.7212 92.7754L89.5877 93.083L92.7849 84.0766L91.9184 83.769ZM89.2227 88.5961V89.5155H94.6976V88.5961V87.6767H89.2227V88.5961ZM94.6976 88.5961H93.7782V89.7454H94.6976H95.6171V88.5961H94.6976ZM94.6976 89.7454V88.826H89.2227V89.7454V90.6648H94.6976V89.7454ZM89.2227 89.7454H90.1422V88.5961H89.2227H88.3033V89.7454H89.2227ZM98.2239 92.7754H97.3045V93.6948H98.2239V92.7754ZM98.2239 82.0764V81.157H97.3045V82.0764H98.2239ZM103.897 82.5309L103.443 83.3302L103.449 83.3337L103.897 82.5309ZM105.088 83.7481L104.267 84.1615V84.1615L105.088 83.7481ZM105.088 87.1804L104.266 86.7692L104.264 86.7736L105.088 87.1804ZM103.908 88.4133L104.362 89.2125L104.366 89.2103L103.908 88.4133ZM99.2687 88.8678H98.3493V89.7872H99.2687V88.8678ZM99.2687 87.7184V86.799H98.3493V87.7184H99.2687ZM103.202 87.4207L102.747 86.6219V86.6219L103.202 87.4207ZM103.96 86.6162L103.128 86.2255L103.126 86.2292L103.96 86.6162ZM103.96 84.3123L103.126 84.6993L103.129 84.7063L103.96 84.3123ZM103.197 83.5183L102.751 84.3224L102.758 84.3257L103.197 83.5183ZM99.5195 83.2257V82.3063H98.6V83.2257H99.5195ZM99.5195 92.7754V93.6948H100.439V92.7754H99.5195ZM98.2239 92.7754H99.1433V82.0764H98.2239H97.3045V92.7754H98.2239ZM98.2239 82.0764V82.9958H101.839V82.0764V81.157H98.2239V82.0764ZM101.839 82.0764V82.9958C102.575 82.9958 103.09 83.1297 103.443 83.3302L103.897 82.5309L104.352 81.7316C103.639 81.3261 102.781 81.157 101.839 81.157V82.0764ZM103.897 82.5309L103.449 83.3337C103.837 83.5503 104.098 83.8257 104.267 84.1615L105.088 83.7481L105.91 83.3347C105.563 82.6466 105.03 82.1105 104.346 81.7281L103.897 82.5309ZM105.088 83.7481L104.267 84.1615C104.454 84.5329 104.556 84.9603 104.556 85.4616H105.475H106.394C106.394 84.7022 106.238 83.9873 105.91 83.3347L105.088 83.7481ZM105.475 85.4616H104.556C104.556 85.9629 104.454 86.3931 104.266 86.7692L105.088 87.1804L105.911 87.5916C106.238 86.9368 106.394 86.2211 106.394 85.4616H105.475ZM105.088 87.1804L104.264 86.7736C104.096 87.114 103.836 87.394 103.449 87.6162L103.908 88.4133L104.366 89.2103C105.046 88.8195 105.572 88.2776 105.913 87.5871L105.088 87.1804ZM103.908 88.4133L103.453 87.614C103.1 87.815 102.588 87.9483 101.86 87.9483V88.8678V89.7872C102.797 89.7872 103.65 89.6175 104.362 89.2125L103.908 88.4133ZM101.86 88.8678V87.9483H99.2687V88.8678V89.7872H101.86V88.8678ZM99.2687 88.8678H100.188V87.7184H99.2687H98.3493V88.8678H99.2687ZM99.2687 87.7184V88.6379H101.818V87.7184V86.799H99.2687V87.7184ZM101.818 87.7184V88.6379C102.487 88.6379 103.123 88.524 103.658 88.2195L103.202 87.4207L102.747 86.6219C102.585 86.7143 102.298 86.799 101.818 86.799V87.7184ZM103.202 87.4207L103.658 88.2195C104.159 87.934 104.551 87.5277 104.794 87.0031L103.96 86.6162L103.126 86.2292C103.056 86.3803 102.943 86.5103 102.747 86.6219L103.202 87.4207ZM103.96 86.6162L104.792 87.0068C105.017 86.5276 105.12 86.0066 105.12 85.4616H104.2H103.281C103.281 85.7734 103.223 86.0221 103.128 86.2255L103.96 86.6162ZM104.2 85.4616H105.12C105.12 84.9168 105.017 84.3961 104.791 83.9184L103.96 84.3123L103.129 84.7063C103.223 84.9042 103.281 85.1497 103.281 85.4616H104.2ZM103.96 84.3123L104.794 83.9254C104.548 83.3949 104.148 82.9891 103.637 82.7108L103.197 83.5183L102.758 84.3257C102.95 84.4306 103.059 84.5541 103.126 84.6993L103.96 84.3123ZM103.197 83.5183L103.643 82.7141C103.107 82.4172 102.47 82.3063 101.797 82.3063V83.2257V84.1452C102.288 84.1452 102.584 84.2293 102.751 84.3224L103.197 83.5183ZM101.797 83.2257V82.3063H99.5195V83.2257V84.1452H101.797V83.2257ZM99.5195 83.2257H98.6V92.7754H99.5195H100.439V83.2257H99.5195ZM99.5195 92.7754V91.8559H98.2239V92.7754V93.6948H99.5195V92.7754Z" fill="white" mask="url(#path-4-inside-1_2_20)"/>
<mask id="path-6-inside-2_2_20" fill="white">
<path d="M81.8192 263.55V255.526H86.6306V256.388H82.7909V259.099H86.2701V259.961H82.7909V263.55H81.8192ZM89.2665 255.526V263.55H88.2948V255.526H89.2665ZM91.2148 263.55V255.526H93.9261C94.553 255.526 95.0676 255.633 95.4698 255.847C95.8721 256.059 96.1698 256.35 96.3631 256.721C96.5564 257.092 96.6531 257.514 96.6531 257.987C96.6531 258.46 96.5564 258.879 96.3631 259.244C96.1698 259.61 95.8734 259.897 95.4737 260.106C95.0741 260.313 94.5634 260.416 93.9418 260.416H91.7476V259.538H93.9104C94.3388 259.538 94.6836 259.476 94.9448 259.35C95.2086 259.225 95.3993 259.047 95.5168 258.817C95.637 258.585 95.6971 258.308 95.6971 257.987C95.6971 257.665 95.637 257.385 95.5168 257.144C95.3967 256.904 95.2047 256.719 94.9409 256.588C94.6771 256.455 94.3283 256.388 93.8947 256.388H92.1865V263.55H91.2148ZM94.9918 259.946L96.9665 263.55H95.8381L93.8947 259.946H94.9918ZM98.2722 263.55V255.526H103.115V256.388H99.2439V259.099H102.864V259.961H99.2439V262.688H103.178V263.55H98.2722Z"/>
</mask>
<path d="M81.8192 263.55V255.526H86.6306V256.388H82.7909V259.099H86.2701V259.961H82.7909V263.55H81.8192ZM89.2665 255.526V263.55H88.2948V255.526H89.2665ZM91.2148 263.55V255.526H93.9261C94.553 255.526 95.0676 255.633 95.4698 255.847C95.8721 256.059 96.1698 256.35 96.3631 256.721C96.5564 257.092 96.6531 257.514 96.6531 257.987C96.6531 258.46 96.5564 258.879 96.3631 259.244C96.1698 259.61 95.8734 259.897 95.4737 260.106C95.0741 260.313 94.5634 260.416 93.9418 260.416H91.7476V259.538H93.9104C94.3388 259.538 94.6836 259.476 94.9448 259.35C95.2086 259.225 95.3993 259.047 95.5168 258.817C95.637 258.585 95.6971 258.308 95.6971 257.987C95.6971 257.665 95.637 257.385 95.5168 257.144C95.3967 256.904 95.2047 256.719 94.9409 256.588C94.6771 256.455 94.3283 256.388 93.8947 256.388H92.1865V263.55H91.2148ZM94.9918 259.946L96.9665 263.55H95.8381L93.8947 259.946H94.9918ZM98.2722 263.55V255.526H103.115V256.388H99.2439V259.099H102.864V259.961H99.2439V262.688H103.178V263.55H98.2722Z" fill="white"/>
<path d="M81.8192 263.55H80.8998V264.47H81.8192V263.55ZM81.8192 255.526V254.607H80.8998V255.526H81.8192ZM86.6306 255.526H87.5501V254.607H86.6306V255.526ZM86.6306 256.388V257.308H87.5501V256.388H86.6306ZM82.7909 256.388V255.469H81.8714V256.388H82.7909ZM82.7909 259.099H81.8714V260.019H82.7909V259.099ZM86.2701 259.099H87.1896V258.18H86.2701V259.099ZM86.2701 259.961V260.881H87.1896V259.961H86.2701ZM82.7909 259.961V259.042H81.8714V259.961H82.7909ZM82.7909 263.55V264.47H83.7103V263.55H82.7909ZM81.8192 263.55H82.7386V255.526H81.8192H80.8998V263.55H81.8192ZM81.8192 255.526V256.446H86.6306V255.526V254.607H81.8192V255.526ZM86.6306 255.526H85.7112V256.388H86.6306H87.5501V255.526H86.6306ZM86.6306 256.388V255.469H82.7909V256.388V257.308H86.6306V256.388ZM82.7909 256.388H81.8714V259.099H82.7909H83.7103V256.388H82.7909ZM82.7909 259.099V260.019H86.2701V259.099V258.18H82.7909V259.099ZM86.2701 259.099H85.3507V259.961H86.2701H87.1896V259.099H86.2701ZM86.2701 259.961V259.042H82.7909V259.961V260.881H86.2701V259.961ZM82.7909 259.961H81.8714V263.55H82.7909H83.7103V259.961H82.7909ZM82.7909 263.55V262.631H81.8192V263.55V264.47H82.7909V263.55ZM89.2665 255.526H90.1859V254.607H89.2665V255.526ZM89.2665 263.55V264.47H90.1859V263.55H89.2665ZM88.2948 263.55H87.3754V264.47H88.2948V263.55ZM88.2948 255.526V254.607H87.3754V255.526H88.2948ZM89.2665 255.526H88.3471V263.55H89.2665H90.1859V255.526H89.2665ZM89.2665 263.55V262.631H88.2948V263.55V264.47H89.2665V263.55ZM88.2948 263.55H89.2143V255.526H88.2948H87.3754V263.55H88.2948ZM88.2948 255.526V256.446H89.2665V255.526V254.607H88.2948V255.526ZM91.2148 263.55H90.2953V264.47H91.2148V263.55ZM91.2148 255.526V254.607H90.2953V255.526H91.2148ZM95.4698 255.847L95.0377 256.659L95.0418 256.661L95.4698 255.847ZM96.3631 256.721L95.5478 257.146L95.5478 257.146L96.3631 256.721ZM96.3631 259.244L95.5503 258.815V258.815L96.3631 259.244ZM95.4737 260.106L95.8956 260.923L95.8998 260.921L95.4737 260.106ZM91.7476 260.416H90.8282V261.335H91.7476V260.416ZM91.7476 259.538V258.619H90.8282V259.538H91.7476ZM94.9448 259.35L94.5501 258.52L94.5469 258.521L94.9448 259.35ZM95.5168 258.817L94.7 258.395L94.6982 258.399L95.5168 258.817ZM94.9409 256.588L94.5264 257.409L94.5329 257.412L94.9409 256.588ZM92.1865 256.388V255.469H91.267V256.388H92.1865ZM92.1865 263.55V264.47H93.1059V263.55H92.1865ZM94.9918 259.946L95.7982 259.504L95.5365 259.026H94.9918V259.946ZM96.9665 263.55V264.47H98.5186L97.7729 263.109L96.9665 263.55ZM95.8381 263.55L95.0288 263.987L95.2893 264.47H95.8381V263.55ZM93.8947 259.946V259.026H92.3545L93.0854 260.382L93.8947 259.946ZM91.2148 263.55H92.1342V255.526H91.2148H90.2953V263.55H91.2148ZM91.2148 255.526V256.446H93.9261V255.526V254.607H91.2148V255.526ZM93.9261 255.526V256.446C94.456 256.446 94.809 256.537 95.0377 256.659L95.4698 255.847L95.9019 255.036C95.3262 254.729 94.6499 254.607 93.9261 254.607V255.526ZM95.4698 255.847L95.0418 256.661C95.2934 256.794 95.4485 256.956 95.5478 257.146L96.3631 256.721L97.1785 256.296C96.8911 255.745 96.4507 255.325 95.8978 255.034L95.4698 255.847ZM96.3631 256.721L95.5478 257.146C95.6642 257.37 95.7336 257.642 95.7336 257.987H96.6531H97.5725C97.5725 257.385 97.4486 256.815 97.1785 256.296L96.3631 256.721ZM96.6531 257.987H95.7336C95.7336 258.331 95.6641 258.599 95.5503 258.815L96.3631 259.244L97.176 259.674C97.4487 259.158 97.5725 258.588 97.5725 257.987H96.6531ZM96.3631 259.244L95.5503 258.815C95.4518 259.001 95.298 259.161 95.0477 259.292L95.4737 260.106L95.8998 260.921C96.4488 260.634 96.8878 260.219 97.176 259.674L96.3631 259.244ZM95.4737 260.106L95.0519 259.289C94.8228 259.408 94.4697 259.497 93.9418 259.497V260.416V261.335C94.6571 261.335 95.3253 261.218 95.8956 260.923L95.4737 260.106ZM93.9418 260.416V259.497H91.7476V260.416V261.335H93.9418V260.416ZM91.7476 260.416H92.6671V259.538H91.7476H90.8282V260.416H91.7476ZM91.7476 259.538V260.458H93.9104V259.538V258.619H91.7476V259.538ZM93.9104 259.538V260.458C94.416 260.458 94.9123 260.386 95.3427 260.179L94.9448 259.35L94.5469 258.521C94.4548 258.566 94.2616 258.619 93.9104 258.619V259.538ZM94.9448 259.35L95.3394 260.181C95.7608 259.98 96.1138 259.669 96.3354 259.236L95.5168 258.817L94.6982 258.399C94.6848 258.425 94.6564 258.469 94.5501 258.52L94.9448 259.35ZM95.5168 258.817L96.3336 259.24C96.5349 258.85 96.6165 258.422 96.6165 257.987H95.6971H94.7776C94.7776 258.194 94.7391 258.32 94.7 258.395L95.5168 258.817ZM95.6971 257.987H96.6165C96.6165 257.55 96.5345 257.124 96.3392 256.733L95.5168 257.144L94.6945 257.556C94.7394 257.646 94.7776 257.78 94.7776 257.987H95.6971ZM95.5168 257.144L96.3392 256.733C96.1209 256.296 95.7739 255.974 95.3488 255.764L94.9409 256.588L94.5329 257.412C94.6355 257.463 94.6725 257.512 94.6945 257.556L95.5168 257.144ZM94.9409 256.588L95.3553 255.767C94.9171 255.546 94.4102 255.469 93.8947 255.469V256.388V257.308C94.2465 257.308 94.437 257.364 94.5264 257.409L94.9409 256.588ZM93.8947 256.388V255.469H92.1865V256.388V257.308H93.8947V256.388ZM92.1865 256.388H91.267V263.55H92.1865H93.1059V256.388H92.1865ZM92.1865 263.55V262.631H91.2148V263.55V264.47H92.1865V263.55ZM94.9918 259.946L94.1854 260.388L96.1601 263.992L96.9665 263.55L97.7729 263.109L95.7982 259.504L94.9918 259.946ZM96.9665 263.55V262.631H95.8381V263.55V264.47H96.9665V263.55ZM95.8381 263.55L96.6474 263.114L94.7041 259.509L93.8947 259.946L93.0854 260.382L95.0288 263.987L95.8381 263.55ZM93.8947 259.946V260.865H94.9918V259.946V259.026H93.8947V259.946ZM98.2722 263.55H97.3528V264.47H98.2722V263.55ZM98.2722 255.526V254.607H97.3528V255.526H98.2722ZM103.115 255.526H104.034V254.607H103.115V255.526ZM103.115 256.388V257.308H104.034V256.388H103.115ZM99.2439 256.388V255.469H98.3245V256.388H99.2439ZM99.2439 259.099H98.3245V260.019H99.2439V259.099ZM102.864 259.099H103.784V258.18H102.864V259.099ZM102.864 259.961V260.881H103.784V259.961H102.864ZM99.2439 259.961V259.042H98.3245V259.961H99.2439ZM99.2439 262.688H98.3245V263.608H99.2439V262.688ZM103.178 262.688H104.097V261.769H103.178V262.688ZM103.178 263.55V264.47H104.097V263.55H103.178ZM98.2722 263.55H99.1917V255.526H98.2722H97.3528V263.55H98.2722ZM98.2722 255.526V256.446H103.115V255.526V254.607H98.2722V255.526ZM103.115 255.526H102.196V256.388H103.115H104.034V255.526H103.115ZM103.115 256.388V255.469H99.2439V256.388V257.308H103.115V256.388ZM99.2439 256.388H98.3245V259.099H99.2439H100.163V256.388H99.2439ZM99.2439 259.099V260.019H102.864V259.099V258.18H99.2439V259.099ZM102.864 259.099H101.945V259.961H102.864H103.784V259.099H102.864ZM102.864 259.961V259.042H99.2439V259.961V260.881H102.864V259.961ZM99.2439 259.961H98.3245V262.688H99.2439H100.163V259.961H99.2439ZM99.2439 262.688V263.608H103.178V262.688V261.769H99.2439V262.688ZM103.178 262.688H102.258V263.55H103.178H104.097V262.688H103.178ZM103.178 263.55V262.631H98.2722V263.55V264.47H103.178V263.55Z" fill="white" mask="url(#path-6-inside-2_2_20)"/>
<g opacity="0.92298">
<path opacity="0.6" d="M101.66 143.596H84.9888L93.3237 131.092L101.66 143.596Z" fill="white" stroke="white" stroke-width="0.919444"/>
<path opacity="0.6" d="M101.66 208.877L93.3237 221.38L84.9888 208.877H101.66Z" fill="white" stroke="white" stroke-width="0.919444"/>
</g>
</g>
</svg>
